<?xml version="1.0" standalone="no"?>
<!DOCTYPE svg PUBLIC "-//W3C//DTD SVG 1.1//EN"
"http://www.w3.org/Graphics/SVG/1.1/DTD/svg11.dtd">

<svg width="297" height="218" view_box="0 0 297 218"
xmlns="http://www.w3.org/2000/svg"
xmlns:link="http://www.w3.org/1999/xlink">\n\n<desc>Généré par Mocodo 2.3.7 le Wed, 09 Jun 2021 15:27:33</desc>

<rect id="frame" x="0" y="0" width="297" height="218" fill="#f7f7f7" stroke="none" stroke-width="0"/>

<!-- Association CONTAINS -->
<line x1="150" y1="34" x2="51" y2="34" stroke="#7fbc41" stroke-width="2"/>
<text x="96" y="51.0" fill="#c51b7d" font-family="Verdana" font-size="12">1,N</text>
<line x1="51" y1="109" x2="51" y2="34" stroke="#7fbc41" stroke-width="2"/>
<text x="56.0" y="76" fill="#c51b7d" font-family="Verdana" font-size="12">1,N</text>
<g id="association-CONTAINS">
	<path d="M 77 9 a 14 14 90 0 1 14 14 V 34 h -80 V 23 a 14 14 90 0 1 14 -14" fill="#b8e186" stroke="#b8e186" stroke-width="0"/>
	<path d="M 91 34.0 v 11 a 14 14 90 0 1 -14 14 H 25 a 14 14 90 0 1 -14 -14 V 34.0 H 80" fill="#e6f5d0" stroke="#e6f5d0" stroke-width="0"/>
	<rect x="11" y="9" width="80" height="50" fill="none" rx="14" stroke="#7fbc41" stroke-width="2"/>
	<line x1="11" y1="34" x2="91" y2="34" stroke="#7fbc41" stroke-width="1"/>
	<text x="18" y="26.7" fill="#000000" font-family="Verdana" font-size="12">CONTAINS</text>
</g>

<!-- Association IS PART OF -->
<line x1="150" y1="184" x2="51" y2="184" stroke="#7fbc41" stroke-width="2"/>
<text x="99" y="201.0" fill="#c51b7d" font-family="Verdana" font-size="12">0,N</text>
<line x1="51" y1="109" x2="51" y2="184" stroke="#7fbc41" stroke-width="2"/>
<text x="56.0" y="151" fill="#c51b7d" font-family="Verdana" font-size="12">1,1</text>
<g id="association-IS PART OF">
	<path d="M 79 159 a 14 14 90 0 1 14 14 V 184 h -84 V 173 a 14 14 90 0 1 14 -14" fill="#b8e186" stroke="#b8e186" stroke-width="0"/>
	<path d="M 93 184.0 v 11 a 14 14 90 0 1 -14 14 H 23 a 14 14 90 0 1 -14 -14 V 184.0 H 84" fill="#e6f5d0" stroke="#e6f5d0" stroke-width="0"/>
	<rect x="9" y="159" width="84" height="50" fill="none" rx="14" stroke="#7fbc41" stroke-width="2"/>
	<line x1="9" y1="184" x2="93" y2="184" stroke="#7fbc41" stroke-width="1"/>
	<text x="16" y="176.7" fill="#000000" font-family="Verdana" font-size="12">IS PART OF</text>
</g>

<!-- Association WROTE -->
<line x1="51" y1="109" x2="150" y2="109" stroke="#7fbc41" stroke-width="2"/>
<text x="79" y="126.0" fill="#c51b7d" font-family="Verdana" font-size="12">1,N</text>
<line x1="250" y1="109" x2="150" y2="109" stroke="#7fbc41" stroke-width="2"/>
<text x="185" y="126.0" fill="#c51b7d" font-family="Verdana" font-size="12">1,N</text>
<g id="association-WROTE">
	<path d="M 166 84 a 14 14 90 0 1 14 14 V 109 h -60 V 98 a 14 14 90 0 1 14 -14" fill="#b8e186" stroke="#b8e186" stroke-width="0"/>
	<path d="M 180 109.0 v 11 a 14 14 90 0 1 -14 14 H 134 a 14 14 90 0 1 -14 -14 V 109.0 H 60" fill="#e6f5d0" stroke="#e6f5d0" stroke-width="0"/>
	<rect x="120" y="84" width="60" height="50" fill="none" rx="14" stroke="#7fbc41" stroke-width="2"/>
	<line x1="120" y1="109" x2="180" y2="109" stroke="#7fbc41" stroke-width="1"/>
	<text x="127" y="101.7" fill="#000000" font-family="Verdana" font-size="12">WROTE</text>
</g>

<!-- Entity GENRE -->
<g id="entity-GENRE">
	<g id="frame-GENRE">
		<rect x="123" y="9" width="54" height="25" fill="#f1b6da" stroke="#f1b6da" stroke-width="0"/>
		<rect x="123" y="34.0" width="54" height="25" fill="#fde0ef" stroke="#fde0ef" stroke-width="0"/>
		<rect x="123" y="9" width="54" height="50" fill="none" stroke="#de77ae" stroke-width="2"/>
		<line x1="123" y1="34" x2="177" y2="34" stroke="#de77ae" stroke-width="1"/>
	</g>
	<text x="128" y="26.7" fill="#000000" font-family="Verdana" font-size="12">GENRE</text>
	<text x="128" y="51.8" fill="#000000" font-family="Verdana" font-size="12">label</text>
	<line x1="128" y1="54" x2="157" y2="54" stroke="#000000" stroke-width="1"/>
</g>

<!-- Entity SERIE -->
<g id="entity-SERIE">
	<g id="frame-SERIE">
		<rect x="126" y="159" width="48" height="25" fill="#f1b6da" stroke="#f1b6da" stroke-width="0"/>
		<rect x="126" y="184.0" width="48" height="25" fill="#fde0ef" stroke="#fde0ef" stroke-width="0"/>
		<rect x="126" y="159" width="48" height="50" fill="none" stroke="#de77ae" stroke-width="2"/>
		<line x1="126" y1="184" x2="174" y2="184" stroke="#de77ae" stroke-width="1"/>
	</g>
	<text x="131" y="176.7" fill="#000000" font-family="Verdana" font-size="12">SERIE</text>
	<text x="131" y="201.8" fill="#000000" font-family="Verdana" font-size="12">label</text>
	<line x1="131" y1="204" x2="160" y2="204" stroke="#000000" stroke-width="1"/>
</g>

<!-- Entity BOOK -->
<g id="entity-BOOK">
	<g id="frame-BOOK">
		<rect x="28" y="84" width="46" height="25" fill="#f1b6da" stroke="#f1b6da" stroke-width="0"/>
		<rect x="28" y="109.0" width="46" height="25" fill="#fde0ef" stroke="#fde0ef" stroke-width="0"/>
		<rect x="28" y="84" width="46" height="50" fill="none" stroke="#de77ae" stroke-width="2"/>
		<line x1="28" y1="109" x2="74" y2="109" stroke="#de77ae" stroke-width="1"/>
	</g>
	<text x="33" y="101.7" fill="#000000" font-family="Verdana" font-size="12">BOOK</text>
	<text x="33" y="126.8" fill="#000000" font-family="Verdana" font-size="12">title</text>
	<line x1="33" y1="129" x2="57" y2="129" stroke="#000000" stroke-width="1"/>
</g>

<!-- Entity AUTHOR -->
<g id="entity-AUTHOR">
	<g id="frame-AUTHOR">
		<rect x="212" y="75" width="76" height="25" fill="#f1b6da" stroke="#f1b6da" stroke-width="0"/>
		<rect x="212" y="100.0" width="76" height="43" fill="#fde0ef" stroke="#fde0ef" stroke-width="0"/>
		<rect x="212" y="75" width="76" height="68" fill="none" stroke="#de77ae" stroke-width="2"/>
		<line x1="212" y1="100" x2="288" y2="100" stroke="#de77ae" stroke-width="1"/>
	</g>
	<text x="224" y="92.7" fill="#000000" font-family="Verdana" font-size="12">AUTHOR</text>
	<text x="217" y="117.8" fill="#000000" font-family="Verdana" font-size="12">first_name</text>
	<line x1="217" y1="120" x2="283" y2="120" stroke="#000000" stroke-width="1"/>
	<text x="217" y="134.8" fill="#000000" font-family="Verdana" font-size="12">last_name</text>
</g>
</svg>